<svg id="visual" viewBox="0 0 900 600" width="900" height="600" xmlns="http://www.w3.org/2000/svg" xmlns:xlink="http://www.w3.org/1999/xlink" version="1.1"><path d="M657 600L653.7 585.7C650.3 571.3 643.7 542.7 663.3 514.2C683 485.7 729 457.3 725.3 428.8C721.7 400.3 668.3 371.7 667.8 343C667.3 314.3 719.7 285.7 746.5 257C773.3 228.3 774.7 199.7 776.5 171.2C778.3 142.7 780.7 114.3 752 85.8C723.3 57.3 663.7 28.7 633.8 14.3L604 0L900 0L900 14.3C900 28.7 900 57.3 900 85.8C900 114.3 900 142.7 900 171.2C900 199.7 900 228.3 900 257C900 285.7 900 314.3 900 343C900 371.7 900 400.3 900 428.8C900 457.3 900 485.7 900 514.2C900 542.7 900 571.3 900 585.7L900 600Z" fill="#f7e800" stroke-linecap="round" stroke-linejoin="miter"></path></svg>