<svg id="visual" viewBox="0 0 960 540" width="960" height="540" xmlns="http://www.w3.org/2000/svg" xmlns:xlink="http://www.w3.org/1999/xlink" version="1.1"><path d="M407 0L431 18C455 36 503 72 520.8 108C538.7 144 526.3 180 513.3 216C500.3 252 486.7 288 487 324C487.3 360 501.7 396 496.3 432C491 468 466 504 453.5 522L441 540L0 540L0 522C0 504 0 468 0 432C0 396 0 360 0 324C0 288 0 252 0 216C0 180 0 144 0 108C0 72 0 36 0 18L0 0Z" fill="#ffe000" stroke-linecap="round" stroke-linejoin="miter"></path></svg>