<svg id="visual" viewBox="0 0 960 540" width="960" height="540" xmlns="http://www.w3.org/2000/svg" xmlns:xlink="http://www.w3.org/1999/xlink" version="1.1"><path d="M446 0L460.3 18C474.7 36 503.3 72 518.3 108C533.3 144 534.7 180 521.3 216C508 252 480 288 476.3 324C472.7 360 493.3 396 511.7 432C530 468 546 504 554 522L562 540L0 540L0 522C0 504 0 468 0 432C0 396 0 360 0 324C0 288 0 252 0 216C0 180 0 144 0 108C0 72 0 36 0 18L0 0Z" fill="#ffe000" stroke-linecap="round" stroke-linejoin="miter"></path></svg>