<svg id="visual" viewBox="0 0 900 600" width="900" height="600" xmlns="http://www.w3.org/2000/svg" xmlns:xlink="http://www.w3.org/1999/xlink" version="1.1"><path d="M0 286L21.5 297.8C43 309.7 86 333.3 128.8 349.3C171.7 365.3 214.3 373.7 257.2 349.7C300 325.7 343 269.3 385.8 267.3C428.7 265.3 471.3 317.7 514.2 339C557 360.3 600 350.7 642.8 331.8C685.7 313 728.3 285 771.2 267.7C814 250.3 857 243.7 878.5 240.3L900 237L900 601L878.5 601C857 601 814 601 771.2 601C728.3 601 685.7 601 642.8 601C600 601 557 601 514.2 601C471.3 601 428.7 601 385.8 601C343 601 300 601 257.2 601C214.3 601 171.7 601 128.8 601C86 601 43 601 21.5 601L0 601Z" fill="#f7e800" stroke-linecap="round" stroke-linejoin="miter"></path></svg>