<svg id="visual" viewBox="0 0 900 600" width="900" height="600" xmlns="http://www.w3.org/2000/svg" xmlns:xlink="http://www.w3.org/1999/xlink" version="1.1"><path d="M0 243L21.5 268.7C43 294.3 86 345.7 128.8 340.5C171.7 335.3 214.3 273.7 257.2 242.2C300 210.7 343 209.3 385.8 215.3C428.7 221.3 471.3 234.7 514.2 267.7C557 300.7 600 353.3 642.8 361.5C685.7 369.7 728.3 333.3 771.2 333C814 332.7 857 368.3 878.5 386.2L900 404L900 601L878.5 601C857 601 814 601 771.2 601C728.3 601 685.7 601 642.8 601C600 601 557 601 514.2 601C471.3 601 428.7 601 385.8 601C343 601 300 601 257.2 601C214.3 601 171.7 601 128.8 601C86 601 43 601 21.5 601L0 601Z" fill="#f7e800" stroke-linecap="round" stroke-linejoin="miter"></path></svg>