<svg id="visual" viewBox="0 0 900 600" width="900" height="600" xmlns="http://www.w3.org/2000/svg" xmlns:xlink="http://www.w3.org/1999/xlink" version="1.1"><path d="M0 173L21.5 175.8C43 178.7 86 184.3 128.8 172C171.7 159.7 214.3 129.3 257.2 113.3C300 97.3 343 95.7 385.8 101.5C428.7 107.3 471.3 120.7 514.2 135.8C557 151 600 168 642.8 183C685.7 198 728.3 211 771.2 196.7C814 182.3 857 140.7 878.5 119.8L900 99L900 0L878.5 0C857 0 814 0 771.2 0C728.3 0 685.7 0 642.8 0C600 0 557 0 514.2 0C471.3 0 428.7 0 385.8 0C343 0 300 0 257.2 0C214.3 0 171.7 0 128.8 0C86 0 43 0 21.5 0L0 0Z" fill="#f7e800" stroke-linecap="round" stroke-linejoin="miter"></path></svg>