<svg id="visual" viewBox="0 0 900 600" width="900" height="600" xmlns="http://www.w3.org/2000/svg" xmlns:xlink="http://www.w3.org/1999/xlink" version="1.1"><path d="M0 196L21.5 214.8C43 233.7 86 271.3 128.8 280.5C171.7 289.7 214.3 270.3 257.2 257.5C300 244.7 343 238.3 385.8 258.5C428.7 278.7 471.3 325.3 514.2 338.8C557 352.3 600 332.7 642.8 304.2C685.7 275.7 728.3 238.3 771.2 235.5C814 232.7 857 264.3 878.5 280.2L900 296L900 0L878.5 0C857 0 814 0 771.2 0C728.3 0 685.7 0 642.8 0C600 0 557 0 514.2 0C471.3 0 428.7 0 385.8 0C343 0 300 0 257.2 0C214.3 0 171.7 0 128.8 0C86 0 43 0 21.5 0L0 0Z" fill="#f7e800" stroke-linecap="round" stroke-linejoin="miter"></path></svg>