<svg id="visual" viewBox="0 0 900 600" width="900" height="600" xmlns="http://www.w3.org/2000/svg" xmlns:xlink="http://www.w3.org/1999/xlink" version="1.1"><path d="M0 64L13.7 78.3C27.3 92.7 54.7 121.3 82 131.7C109.3 142 136.7 134 163.8 115.7C191 97.3 218 68.7 245.2 70.2C272.3 71.7 299.7 103.3 327 117.2C354.3 131 381.7 127 409 111.7C436.3 96.3 463.7 69.7 491 56.2C518.3 42.7 545.7 42.3 573 58.8C600.3 75.3 627.7 108.7 654.8 115.5C682 122.3 709 102.7 736.2 91.2C763.3 79.7 790.7 76.3 818 75.8C845.3 75.3 872.7 77.7 886.3 78.8L900 80L900 0L886.3 0C872.7 0 845.3 0 818 0C790.7 0 763.3 0 736.2 0C709 0 682 0 654.8 0C627.7 0 600.3 0 573 0C545.7 0 518.3 0 491 0C463.7 0 436.3 0 409 0C381.7 0 354.3 0 327 0C299.7 0 272.3 0 245.2 0C218 0 191 0 163.8 0C136.7 0 109.3 0 82 0C54.7 0 27.3 0 13.7 0L0 0Z" fill="#f7e800" stroke-linecap="round" stroke-linejoin="miter"></path></svg>