<svg id="visual" viewBox="0 0 900 600" width="900" height="600" xmlns="http://www.w3.org/2000/svg" xmlns:xlink="http://www.w3.org/1999/xlink" version="1.1"><path d="M0 438L21.5 442.3C43 446.7 86 455.3 128.8 453C171.7 450.7 214.3 437.3 257.2 432.8C300 428.3 343 432.7 385.8 438.3C428.7 444 471.3 451 514.2 453C557 455 600 452 642.8 446.2C685.7 440.3 728.3 431.7 771.2 429C814 426.3 857 429.7 878.5 431.3L900 433L900 601L878.5 601C857 601 814 601 771.2 601C728.3 601 685.7 601 642.8 601C600 601 557 601 514.2 601C471.3 601 428.7 601 385.8 601C343 601 300 601 257.2 601C214.3 601 171.7 601 128.8 601C86 601 43 601 21.5 601L0 601Z" fill="#f7e800"></path><path d="M0 519L21.5 521.7C43 524.3 86 529.7 128.8 535.3C171.7 541 214.3 547 257.2 538.8C300 530.7 343 508.3 385.8 505.7C428.7 503 471.3 520 514.2 521.3C557 522.7 600 508.3 642.8 502.7C685.7 497 728.3 500 771.2 499.2C814 498.3 857 493.7 878.5 491.3L900 489L900 601L878.5 601C857 601 814 601 771.2 601C728.3 601 685.7 601 642.8 601C600 601 557 601 514.2 601C471.3 601 428.7 601 385.8 601C343 601 300 601 257.2 601C214.3 601 171.7 601 128.8 601C86 601 43 601 21.5 601L0 601Z" fill="#f7ca00"></path></svg>