<svg id="visual" viewBox="0 0 900 600" width="900" height="600" xmlns="http://www.w3.org/2000/svg" xmlns:xlink="http://www.w3.org/1999/xlink" version="1.1"><path d="M0 506L15 501.3C30 496.7 60 487.3 90 480.2C120 473 150 468 180 463.7C210 459.3 240 455.7 270 457.7C300 459.7 330 467.3 360 472C390 476.7 420 478.3 450 475.3C480 472.3 510 464.7 540 458.7C570 452.7 600 448.3 630 451C660 453.7 690 463.3 720 470.3C750 477.3 780 481.7 810 486.7C840 491.7 870 497.3 885 500.2L900 503L900 601L885 601C870 601 840 601 810 601C780 601 750 601 720 601C690 601 660 601 630 601C600 601 570 601 540 601C510 601 480 601 450 601C420 601 390 601 360 601C330 601 300 601 270 601C240 601 210 601 180 601C150 601 120 601 90 601C60 601 30 601 15 601L0 601Z" fill="#f7bb00"></path><path d="M0 509L15 506.8C30 504.7 60 500.3 90 496.7C120 493 150 490 180 491.5C210 493 240 499 270 502C300 505 330 505 360 500.8C390 496.7 420 488.3 450 491.5C480 494.7 510 509.3 540 509.8C570 510.3 600 496.7 630 488.3C660 480 690 477 720 480.8C750 484.7 780 495.3 810 495.5C840 495.7 870 485.3 885 480.2L900 475L900 601L885 601C870 601 840 601 810 601C780 601 750 601 720 601C690 601 660 601 630 601C600 601 570 601 540 601C510 601 480 601 450 601C420 601 390 601 360 601C330 601 300 601 270 601C240 601 210 601 180 601C150 601 120 601 90 601C60 601 30 601 15 601L0 601Z" fill="#f9d100"></path><path d="M0 523L15 528.5C30 534 60 545 90 546C120 547 150 538 180 538.7C210 539.3 240 549.7 270 547.5C300 545.3 330 530.7 360 528.8C390 527 420 538 450 543.3C480 548.7 510 548.3 540 544.3C570 540.3 600 532.7 630 534.3C660 536 690 547 720 551.3C750 555.7 780 553.3 810 553C840 552.7 870 554.3 885 555.2L900 556L900 601L885 601C870 601 840 601 810 601C780 601 750 601 720 601C690 601 660 601 630 601C600 601 570 601 540 601C510 601 480 601 450 601C420 601 390 601 360 601C330 601 300 601 270 601C240 601 210 601 180 601C150 601 120 601 90 601C60 601 30 601 15 601L0 601Z" fill="#f7e800"></path></svg>