<svg id="visual" viewBox="0 0 900 600" width="900" height="600" xmlns="http://www.w3.org/2000/svg" xmlns:xlink="http://www.w3.org/1999/xlink" version="1.1"><path d="M0 460L15 452.8C30 445.7 60 431.3 90 420.5C120 409.7 150 402.3 180 395.8C210 389.3 240 383.7 270 386.7C300 389.7 330 401.3 360 408.3C390 415.3 420 417.7 450 413.2C480 408.7 510 397.3 540 388.5C570 379.7 600 373.3 630 377.3C660 381.3 690 395.7 720 406C750 416.3 780 422.7 810 430.2C840 437.7 870 446.3 885 450.7L900 455L900 601L885 601C870 601 840 601 810 601C780 601 750 601 720 601C690 601 660 601 630 601C600 601 570 601 540 601C510 601 480 601 450 601C420 601 390 601 360 601C330 601 300 601 270 601C240 601 210 601 180 601C150 601 120 601 90 601C60 601 30 601 15 601L0 601Z" fill="#f7bb00"></path><path d="M0 465L15 461.7C30 458.3 60 451.7 90 446.2C120 440.7 150 436.3 180 438.5C210 440.7 240 449.3 270 453.5C300 457.7 330 457.3 360 451C390 444.7 420 432.3 450 437.2C480 442 510 464 540 464.8C570 465.7 600 445.3 630 432.8C660 420.3 690 415.7 720 421.3C750 427 780 443 810 443.3C840 443.7 870 428.3 885 420.7L900 413L900 601L885 601C870 601 840 601 810 601C780 601 750 601 720 601C690 601 660 601 630 601C600 601 570 601 540 601C510 601 480 601 450 601C420 601 390 601 360 601C330 601 300 601 270 601C240 601 210 601 180 601C150 601 120 601 90 601C60 601 30 601 15 601L0 601Z" fill="#f9d100"></path><path d="M0 486L15 494.2C30 502.3 60 518.7 90 520C120 521.3 150 507.7 180 508.7C210 509.7 240 525.3 270 522.2C300 519 330 497 360 494.2C390 491.3 420 507.7 450 515.7C480 523.7 510 523.3 540 517.5C570 511.7 600 500.3 630 502.8C660 505.3 690 521.7 720 528C750 534.3 780 530.7 810 530C840 529.3 870 531.7 885 532.8L900 534L900 601L885 601C870 601 840 601 810 601C780 601 750 601 720 601C690 601 660 601 630 601C600 601 570 601 540 601C510 601 480 601 450 601C420 601 390 601 360 601C330 601 300 601 270 601C240 601 210 601 180 601C150 601 120 601 90 601C60 601 30 601 15 601L0 601Z" fill="#f7e800"></path></svg>