<svg id="visual" viewBox="0 0 900 600" width="900" height="600" xmlns="http://www.w3.org/2000/svg" xmlns:xlink="http://www.w3.org/1999/xlink" version="1.1"><path d="M0 357L15 371.3C30 385.7 60 414.3 90 423.2C120 432 150 421 180 406.7C210 392.3 240 374.7 270 377C300 379.3 330 401.7 360 419.2C390 436.7 420 449.3 450 453.2C480 457 510 452 540 445.7C570 439.3 600 431.7 630 414.8C660 398 690 372 720 367.8C750 363.7 780 381.3 810 389.7C840 398 870 397 885 396.5L900 396L900 601L885 601C870 601 840 601 810 601C780 601 750 601 720 601C690 601 660 601 630 601C600 601 570 601 540 601C510 601 480 601 450 601C420 601 390 601 360 601C330 601 300 601 270 601C240 601 210 601 180 601C150 601 120 601 90 601C60 601 30 601 15 601L0 601Z" fill="#f7bb00"></path><path d="M0 408L15 421.5C30 435 60 462 90 471.5C120 481 150 473 180 460.3C210 447.7 240 430.3 270 428.2C300 426 330 439 360 443.2C390 447.3 420 442.7 450 441.2C480 439.7 510 441.3 540 445.8C570 450.3 600 457.7 630 466.8C660 476 690 487 720 481.7C750 476.3 780 454.7 810 443.5C840 432.3 870 431.7 885 431.3L900 431L900 601L885 601C870 601 840 601 810 601C780 601 750 601 720 601C690 601 660 601 630 601C600 601 570 601 540 601C510 601 480 601 450 601C420 601 390 601 360 601C330 601 300 601 270 601C240 601 210 601 180 601C150 601 120 601 90 601C60 601 30 601 15 601L0 601Z" fill="#f9d100"></path><path d="M0 520L15 513.5C30 507 60 494 90 491.8C120 489.7 150 498.3 180 497.7C210 497 240 487 270 484.5C300 482 330 487 360 489.5C390 492 420 492 450 493.8C480 495.7 510 499.3 540 501C570 502.7 600 502.3 630 507.2C660 512 690 522 720 528.8C750 535.7 780 539.3 810 530.7C840 522 870 501 885 490.5L900 480L900 601L885 601C870 601 840 601 810 601C780 601 750 601 720 601C690 601 660 601 630 601C600 601 570 601 540 601C510 601 480 601 450 601C420 601 390 601 360 601C330 601 300 601 270 601C240 601 210 601 180 601C150 601 120 601 90 601C60 601 30 601 15 601L0 601Z" fill="#f7e800"></path></svg>