<svg id="visual" viewBox="0 0 900 600" width="900" height="600" xmlns="http://www.w3.org/2000/svg" xmlns:xlink="http://www.w3.org/1999/xlink" version="1.1"><path d="M0 436L15 440.5C30 445 60 454 90 445.3C120 436.7 150 410.3 180 392C210 373.7 240 363.3 270 360.5C300 357.7 330 362.3 360 361.8C390 361.3 420 355.7 450 359.2C480 362.7 510 375.3 540 388.5C570 401.7 600 415.3 630 424.3C660 433.3 690 437.7 720 425.2C750 412.7 780 383.3 810 373.8C840 364.3 870 374.7 885 379.8L900 385L900 601L885 601C870 601 840 601 810 601C780 601 750 601 720 601C690 601 660 601 630 601C600 601 570 601 540 601C510 601 480 601 450 601C420 601 390 601 360 601C330 601 300 601 270 601C240 601 210 601 180 601C150 601 120 601 90 601C60 601 30 601 15 601L0 601Z" fill="#f7bb00"></path><path d="M0 473L15 467C30 461 60 449 90 453.8C120 458.7 150 480.3 180 478C210 475.7 240 449.3 270 438C300 426.7 330 430.3 360 435C390 439.7 420 445.3 450 450.5C480 455.7 510 460.3 540 454.3C570 448.3 600 431.7 630 426.2C660 420.7 690 426.3 720 439.5C750 452.7 780 473.3 810 475.8C840 478.3 870 462.7 885 454.8L900 447L900 601L885 601C870 601 840 601 810 601C780 601 750 601 720 601C690 601 660 601 630 601C600 601 570 601 540 601C510 601 480 601 450 601C420 601 390 601 360 601C330 601 300 601 270 601C240 601 210 601 180 601C150 601 120 601 90 601C60 601 30 601 15 601L0 601Z" fill="#f9d100"></path><path d="M0 485L15 483.3C30 481.7 60 478.3 90 487.2C120 496 150 517 180 519C210 521 240 504 270 498.7C300 493.3 330 499.7 360 507C390 514.3 420 522.7 450 524C480 525.3 510 519.7 540 513.3C570 507 600 500 630 502.3C660 504.7 690 516.3 720 515.2C750 514 780 500 810 498.5C840 497 870 508 885 513.5L900 519L900 601L885 601C870 601 840 601 810 601C780 601 750 601 720 601C690 601 660 601 630 601C600 601 570 601 540 601C510 601 480 601 450 601C420 601 390 601 360 601C330 601 300 601 270 601C240 601 210 601 180 601C150 601 120 601 90 601C60 601 30 601 15 601L0 601Z" fill="#f7e800"></path></svg>