<svg id="visual" viewBox="0 0 900 600" width="900" height="600" xmlns="http://www.w3.org/2000/svg" xmlns:xlink="http://www.w3.org/1999/xlink" version="1.1"><path d="M0 408L15 409.3C30 410.7 60 413.3 90 408.2C120 403 150 390 180 377.8C210 365.7 240 354.3 270 361C300 367.7 330 392.3 360 402.2C390 412 420 407 450 414.2C480 421.3 510 440.7 540 450.5C570 460.3 600 460.7 630 441.8C660 423 690 385 720 379.5C750 374 780 401 810 406.8C840 412.7 870 397.3 885 389.7L900 382L900 601L885 601C870 601 840 601 810 601C780 601 750 601 720 601C690 601 660 601 630 601C600 601 570 601 540 601C510 601 480 601 450 601C420 601 390 601 360 601C330 601 300 601 270 601C240 601 210 601 180 601C150 601 120 601 90 601C60 601 30 601 15 601L0 601Z" fill="#f7bb00"></path><path d="M0 447L15 453.7C30 460.3 60 473.7 90 478.8C120 484 150 481 180 481C210 481 240 484 270 473.8C300 463.7 330 440.3 360 439.2C390 438 420 459 450 461.8C480 464.7 510 449.3 540 442C570 434.7 600 435.3 630 432C660 428.7 690 421.3 720 424.2C750 427 780 440 810 451.3C840 462.7 870 472.3 885 477.2L900 482L900 601L885 601C870 601 840 601 810 601C780 601 750 601 720 601C690 601 660 601 630 601C600 601 570 601 540 601C510 601 480 601 450 601C420 601 390 601 360 601C330 601 300 601 270 601C240 601 210 601 180 601C150 601 120 601 90 601C60 601 30 601 15 601L0 601Z" fill="#f9d100"></path><path d="M0 487L15 493C30 499 60 511 90 519.7C120 528.3 150 533.7 180 529.7C210 525.7 240 512.3 270 509.2C300 506 330 513 360 510.5C390 508 420 496 450 488.7C480 481.3 510 478.7 540 482C570 485.3 600 494.7 630 497.8C660 501 690 498 720 502.7C750 507.3 780 519.7 810 517.2C840 514.7 870 497.3 885 488.7L900 480L900 601L885 601C870 601 840 601 810 601C780 601 750 601 720 601C690 601 660 601 630 601C600 601 570 601 540 601C510 601 480 601 450 601C420 601 390 601 360 601C330 601 300 601 270 601C240 601 210 601 180 601C150 601 120 601 90 601C60 601 30 601 15 601L0 601Z" fill="#f7e800"></path></svg>