<svg id="visual" viewBox="0 0 900 600" width="900" height="600" xmlns="http://www.w3.org/2000/svg" xmlns:xlink="http://www.w3.org/1999/xlink" version="1.1"><rect x="0" y="0" width="900" height="600" fill="#001220"></rect><defs><linearGradient id="grad1_0" x1="33.3%" y1="0%" x2="100%" y2="100%"><stop offset="20%" stop-color="#001220" stop-opacity="1"></stop><stop offset="80%" stop-color="#001220" stop-opacity="1"></stop></linearGradient></defs><defs><linearGradient id="grad2_0" x1="0%" y1="0%" x2="66.7%" y2="100%"><stop offset="20%" stop-color="#001220" stop-opacity="1"></stop><stop offset="80%" stop-color="#001220" stop-opacity="1"></stop></linearGradient></defs><g transform="translate(900, 0)"><path d="M0 297.5C-31.6 294.3 -63.2 291.1 -90.2 277.7C-117.3 264.4 -139.8 240.8 -159.3 219.2C-178.8 197.6 -195.2 178 -217.6 158.1C-240.1 138.3 -268.6 118.3 -282.9 91.9C-297.2 65.5 -297.3 32.8 -297.5 0L0 0Z" fill="#f7e800"></path></g><g transform="translate(0, 600)"><path d="M0 -297.5C32.2 -296.1 64.5 -294.8 91.9 -282.9C119.3 -271 141.9 -248.5 166.9 -229.8C191.9 -211 219.3 -196.1 238.7 -173.4C258 -150.7 269.3 -120.4 277.7 -90.2C286.2 -60.1 291.8 -30 297.5 0L0 0Z" fill="#f7e800"></path></g></svg>