<svg id="visual" viewBox="0 0 900 600" width="900" height="600" xmlns="http://www.w3.org/2000/svg" xmlns:xlink="http://www.w3.org/1999/xlink" version="1.1"><rect x="0" y="0" width="900" height="600" fill="transparent"></rect><defs><linearGradient id="grad1_0" x1="33.3%" y1="0%" x2="100%" y2="100%"><stop offset="20%" stop-color="transparent" stop-opacity="1"></stop><stop offset="80%" stop-color="transparent" stop-opacity="1"></stop></linearGradient></defs><defs><linearGradient id="grad2_0" x1="0%" y1="0%" x2="66.7%" y2="100%"><stop offset="20%" stop-color="transparent" stop-opacity="1"></stop><stop offset="80%" stop-color="transparent" stop-opacity="1"></stop></linearGradient></defs><g transform="translate(900, 0)"><path d="M0 351.5C-39.1 351.5 -78.3 351.5 -108.6 334.3C-139 317.2 -160.5 282.8 -188.7 259.7C-216.8 236.6 -251.6 224.6 -276.7 201C-301.8 177.4 -317.2 142.1 -328.1 106.6C-339 71.2 -345.3 35.6 -351.5 0L0 0Z" fill="#f7e800"></path></g><g transform="translate(0, 600)"><path d="M0 -351.5C37.4 -344.3 74.8 -337.1 103.5 -318.6C132.2 -300.1 152.2 -270.2 183.4 -252.4C214.6 -234.6 257 -228.9 284.4 -206.6C311.8 -184.3 324.2 -145.4 332.9 -108.2C341.6 -70.9 346.5 -35.5 351.5 0L0 0Z" fill="#f7e800"></path></g></svg>