<svg id="visual" viewBox="0 0 900 600" width="900" height="600" xmlns="http://www.w3.org/2000/svg" xmlns:xlink="http://www.w3.org/1999/xlink" version="1.1"><path d="M0 444L15 455.2C30 466.3 60 488.7 90 493.2C120 497.7 150 484.3 180 476.5C210 468.7 240 466.3 270 462C300 457.7 330 451.3 360 460.7C390 470 420 495 450 507.7C480 520.3 510 520.7 540 512C570 503.3 600 485.7 630 478.7C660 471.7 690 475.3 720 482.7C750 490 780 501 810 496.5C840 492 870 472 885 462L900 452L900 601L885 601C870 601 840 601 810 601C780 601 750 601 720 601C690 601 660 601 630 601C600 601 570 601 540 601C510 601 480 601 450 601C420 601 390 601 360 601C330 601 300 601 270 601C240 601 210 601 180 601C150 601 120 601 90 601C60 601 30 601 15 601L0 601Z" fill="#f7e800" stroke-linecap="round" stroke-linejoin="miter"></path></svg>